<svg width="144" height="94" viewBox="0 0 144 94" fill="none" xmlns="http://www.w3.org/2000/svg">
<path d="M72.6633 0H90.9696V72H72.6633V0Z" fill="#2B4570"/>
<path d="M94.5127 16.2581H114V72H94.5127V16.2581Z" fill="#2B4570"/>
<path d="M51.995 21.4839H66.7581V72H51.995V21.4839Z" fill="#2B4570"/>
<path d="M39.0197 17.2985L72.6271 0.272715L74.5203 3.88586L40.9129 20.9116L39.0197 17.2985Z" fill="#2B4570"/>
<path d="M89.0218 19.0132L94.4603 16.2581L96.3535 19.8712L90.9151 22.6264L89.0218 19.0132Z" fill="#2B4570"/>
<path d="M30 32.6001L51.9425 21.4839L53.8358 25.097L31.8933 36.2133L30 32.6001Z" fill="#2B4570"/>
<path d="M30.1456 72L30.1456 32.5161H34.2793L34.2793 72H30.1456Z" fill="#2B4570"/>
<path d="M31.9172 67.9355H114V72H31.9172V67.9355Z" fill="#2B4570"/>
<path d="M39.0035 28.4516L39.0035 16.8387H43.1371V28.4516H39.0035Z" fill="#2B4570"/>
<path d="M6.13673 82.732L6.01673 83.704H3.72474V91H2.58473V83.704H0.232735V82.732H6.13673Z" fill="black"/>
<path d="M9.98208 82.588C10.6781 82.588 11.2861 82.756 11.8061 83.092C12.3341 83.42 12.7421 83.904 13.0301 84.544C13.3261 85.184 13.4741 85.96 13.4741 86.872C13.4741 87.768 13.3261 88.536 13.0301 89.176C12.7421 89.816 12.3341 90.304 11.8061 90.64C11.2861 90.976 10.6781 91.144 9.98208 91.144C9.28608 91.144 8.67408 90.98 8.14608 90.652C7.62608 90.324 7.21808 89.84 6.92208 89.2C6.63408 88.56 6.49008 87.788 6.49008 86.884C6.49008 85.996 6.63408 85.228 6.92208 84.58C7.21808 83.932 7.63008 83.44 8.15808 83.104C8.68608 82.76 9.29408 82.588 9.98208 82.588ZM9.98208 83.524C9.26208 83.524 8.70208 83.796 8.30208 84.34C7.90208 84.884 7.70208 85.732 7.70208 86.884C7.70208 88.028 7.90208 88.868 8.30208 89.404C8.71008 89.94 9.27008 90.208 9.98208 90.208C11.5021 90.208 12.2621 89.096 12.2621 86.872C12.2621 84.64 11.5021 83.524 9.98208 83.524Z" fill="black"/>
<path d="M18.9867 86.632C19.5547 86.728 20.0147 86.928 20.3667 87.232C20.7187 87.536 20.8947 88.008 20.8947 88.648C20.8947 90.216 19.8027 91 17.6187 91H15.3387V82.732H17.2947C18.3427 82.732 19.1427 82.904 19.6947 83.248C20.2547 83.592 20.5347 84.116 20.5347 84.82C20.5347 85.3 20.3827 85.7 20.0787 86.02C19.7827 86.34 19.4187 86.544 18.9867 86.632ZM16.4787 83.632V86.236H17.7267C18.2067 86.236 18.5987 86.12 18.9027 85.888C19.2147 85.656 19.3707 85.328 19.3707 84.904C19.3707 84.424 19.2067 84.092 18.8787 83.908C18.5587 83.724 18.0707 83.632 17.4147 83.632H16.4787ZM17.6187 90.088C18.2907 90.088 18.8027 89.988 19.1547 89.788C19.5147 89.588 19.6947 89.208 19.6947 88.648C19.6947 88.104 19.5227 87.712 19.1787 87.472C18.8347 87.232 18.3867 87.112 17.8347 87.112H16.4787V90.088H17.6187Z" fill="black"/>
<path d="M31.5152 82.732V91H30.3752V83.704H26.9552V91H25.8152V82.732H31.5152Z" fill="black"/>
<path d="M36.1449 85.84C37.1369 85.84 37.9089 86.052 38.4609 86.476C39.0209 86.9 39.3009 87.528 39.3009 88.36C39.3009 89.272 39.0129 89.94 38.4369 90.364C37.8689 90.788 37.0889 91 36.0969 91H33.9129V82.732H38.4129L38.2689 83.668H35.0529V85.84H36.1449ZM36.1929 90.088C36.8009 90.088 37.2689 89.964 37.5969 89.716C37.9249 89.468 38.0889 89.024 38.0889 88.384C38.0889 87.792 37.9249 87.368 37.5969 87.112C37.2689 86.856 36.7889 86.728 36.1569 86.728H35.0529V90.088H36.1929Z" fill="black"/>
<path d="M43.8141 82.588C44.5101 82.588 45.1181 82.756 45.6381 83.092C46.1661 83.42 46.5741 83.904 46.8621 84.544C47.1581 85.184 47.3061 85.96 47.3061 86.872C47.3061 87.768 47.1581 88.536 46.8621 89.176C46.5741 89.816 46.1661 90.304 45.6381 90.64C45.1181 90.976 44.5101 91.144 43.8141 91.144C43.1181 91.144 42.5061 90.98 41.9781 90.652C41.4581 90.324 41.0501 89.84 40.7541 89.2C40.4661 88.56 40.3221 87.788 40.3221 86.884C40.3221 85.996 40.4661 85.228 40.7541 84.58C41.0501 83.932 41.4621 83.44 41.9901 83.104C42.5181 82.76 43.1261 82.588 43.8141 82.588ZM43.8141 83.524C43.0941 83.524 42.5341 83.796 42.1341 84.34C41.7341 84.884 41.5341 85.732 41.5341 86.884C41.5341 88.028 41.7341 88.868 42.1341 89.404C42.5421 89.94 43.1021 90.208 43.8141 90.208C45.3341 90.208 46.0941 89.096 46.0941 86.872C46.0941 84.64 45.3341 83.524 43.8141 83.524Z" fill="black"/>
<path d="M55.2865 88.768C55.0705 89.312 54.8425 89.74 54.6025 90.052C54.3625 90.364 54.0745 90.604 53.7385 90.772C53.4025 90.94 52.9785 91.064 52.4665 91.144L52.2985 90.316C52.8585 90.204 53.2745 90.04 53.5465 89.824C53.8185 89.6 54.0425 89.236 54.2185 88.732H53.7985L51.1465 82.732H52.3345L54.5545 88.036L56.5345 82.732H57.6865L55.2865 88.768Z" fill="black"/>
<path d="M64.347 82.732L62.055 86.608L64.575 91H63.255L61.095 87.124H59.967V91H58.827V82.732H59.967V86.188H61.107L63.147 82.732H64.347Z" fill="black"/>
<path d="M68.0654 82.732C69.0894 82.732 69.8814 82.948 70.4414 83.38C71.0014 83.804 71.2814 84.44 71.2814 85.288C71.2814 86.192 70.9894 86.864 70.4054 87.304C69.8214 87.744 69.0454 87.964 68.0774 87.964H67.0334V91H65.8934V82.732H68.0654ZM68.0294 87.064C68.6934 87.064 69.1974 86.936 69.5414 86.68C69.8934 86.424 70.0694 85.964 70.0694 85.3C70.0694 84.708 69.8934 84.28 69.5414 84.016C69.1974 83.752 68.7014 83.62 68.0534 83.62H67.0334V87.064H68.0294Z" fill="black"/>
<path d="M75.758 82.588C76.254 82.588 76.67 82.652 77.006 82.78C77.35 82.908 77.698 83.116 78.05 83.404L77.426 84.136C76.922 83.728 76.39 83.524 75.83 83.524C75.142 83.524 74.586 83.788 74.162 84.316C73.746 84.844 73.538 85.692 73.538 86.86C73.538 87.996 73.746 88.836 74.162 89.38C74.578 89.916 75.13 90.184 75.818 90.184C76.17 90.184 76.478 90.124 76.742 90.004C77.006 89.884 77.286 89.716 77.582 89.5L78.146 90.22C77.89 90.484 77.562 90.704 77.162 90.88C76.762 91.056 76.302 91.144 75.782 91.144C75.11 91.144 74.51 90.98 73.982 90.652C73.462 90.316 73.054 89.828 72.758 89.188C72.47 88.54 72.326 87.764 72.326 86.86C72.326 85.956 72.478 85.184 72.782 84.544C73.086 83.896 73.498 83.408 74.018 83.08C74.538 82.752 75.118 82.588 75.758 82.588Z" fill="black"/>
<path d="M85.2809 82.732V91H84.1409V83.704H80.7209V91H79.5809V82.732H85.2809Z" fill="black"/>
<path d="M92.1545 82.732L92.0225 83.644H88.8185V86.344H91.6025V87.256H88.8185V90.088H92.2505V91H87.6785V82.732H92.1545Z" fill="black"/>
<path d="M99.6804 90.064H100.64V92.8H99.7404L99.5604 91H94.1004V82.732H95.2404V90.064H98.5404V82.732H99.6804V90.064Z" fill="black"/>
<path d="M107.781 82.732V91H106.641V83.704H103.221V91H102.081V82.732H107.781Z" fill="black"/>
<path d="M112.351 82.732C113.375 82.732 114.167 82.948 114.727 83.38C115.287 83.804 115.567 84.44 115.567 85.288C115.567 86.192 115.275 86.864 114.691 87.304C114.107 87.744 113.331 87.964 112.363 87.964H111.319V91H110.179V82.732H112.351ZM112.315 87.064C112.979 87.064 113.483 86.936 113.827 86.68C114.179 86.424 114.355 85.964 114.355 85.3C114.355 84.708 114.179 84.28 113.827 84.016C113.483 83.752 112.987 83.62 112.339 83.62H111.319V87.064H112.315Z" fill="black"/>
<path d="M120.103 82.588C120.799 82.588 121.407 82.756 121.927 83.092C122.455 83.42 122.863 83.904 123.151 84.544C123.447 85.184 123.595 85.96 123.595 86.872C123.595 87.768 123.447 88.536 123.151 89.176C122.863 89.816 122.455 90.304 121.927 90.64C121.407 90.976 120.799 91.144 120.103 91.144C119.407 91.144 118.795 90.98 118.267 90.652C117.747 90.324 117.339 89.84 117.043 89.2C116.755 88.56 116.611 87.788 116.611 86.884C116.611 85.996 116.755 85.228 117.043 84.58C117.339 83.932 117.751 83.44 118.279 83.104C118.807 82.76 119.415 82.588 120.103 82.588ZM120.103 83.524C119.383 83.524 118.823 83.796 118.423 84.34C118.023 84.884 117.823 85.732 117.823 86.884C117.823 88.028 118.023 88.868 118.423 89.404C118.831 89.94 119.391 90.208 120.103 90.208C121.623 90.208 122.383 89.096 122.383 86.872C122.383 84.64 121.623 83.524 120.103 83.524Z" fill="black"/>
<path d="M129.936 82.732L129.804 83.644H126.6V86.344H129.384V87.256H126.6V90.088H130.032V91H125.46V82.732H129.936Z" fill="black"/>
<path d="M137.402 82.732L135.11 86.608L137.63 91H136.31L134.15 87.124H133.022V91H131.882V82.732H133.022V86.188H134.162L136.202 82.732H137.402Z" fill="black"/>
<path d="M143.832 82.732L143.712 83.704H141.42V91H140.28V83.704H137.928V82.732H143.832Z" fill="black"/>
</svg>
