<svg width="120" height="52" viewBox="0 0 120 52" fill="none" xmlns="http://www.w3.org/2000/svg">
<path d="M60.2685 0H67.6782V32H60.2685V0Z" fill="#2B4570"/>
<path d="M69.1123 7.22581H77V32H69.1123V7.22581Z" fill="#2B4570"/>
<path d="M51.9027 9.54839H57.8783V32H51.9027V9.54839Z" fill="#2B4570"/>
<path d="M46.6508 7.68821L60.2538 0.121207L61.0201 1.72705L47.4171 9.29405L46.6508 7.68821Z" fill="#2B4570"/>
<path d="M66.8898 8.45032L69.0911 7.2258L69.8574 8.83164L67.6561 10.0562L66.8898 8.45032Z" fill="#2B4570"/>
<path d="M43 14.4889L51.8815 9.54838L52.6478 11.1542L43.7663 16.0948L43 14.4889Z" fill="#2B4570"/>
<path d="M43.0589 32L43.0589 14.4516H44.7321L44.7321 32H43.0589Z" fill="#2B4570"/>
<path d="M43.776 30.1935H77V32H43.776V30.1935Z" fill="#2B4570"/>
<path d="M46.6443 12.6452L46.6443 7.48387H48.3174V12.6452H46.6443Z" fill="#2B4570"/>
<path d="M5.11395 42.11L5.01395 42.92H3.10395V49H2.15395V42.92H0.193947V42.11H5.11395Z" fill="black"/>
<path d="M8.3184 41.99C8.8984 41.99 9.40507 42.13 9.8384 42.41C10.2784 42.6833 10.6184 43.0867 10.8584 43.62C11.1051 44.1533 11.2284 44.8 11.2284 45.56C11.2284 46.3067 11.1051 46.9467 10.8584 47.48C10.6184 48.0133 10.2784 48.42 9.8384 48.7C9.40507 48.98 8.8984 49.12 8.3184 49.12C7.7384 49.12 7.2284 48.9833 6.7884 48.71C6.35507 48.4367 6.01507 48.0333 5.7684 47.5C5.5284 46.9667 5.4084 46.3233 5.4084 45.57C5.4084 44.83 5.5284 44.19 5.7684 43.65C6.01507 43.11 6.3584 42.7 6.7984 42.42C7.2384 42.1333 7.74507 41.99 8.3184 41.99ZM8.3184 42.77C7.7184 42.77 7.25173 42.9967 6.9184 43.45C6.58507 43.9033 6.4184 44.61 6.4184 45.57C6.4184 46.5233 6.58507 47.2233 6.9184 47.67C7.2584 48.1167 7.72507 48.34 8.3184 48.34C9.58507 48.34 10.2184 47.4133 10.2184 45.56C10.2184 43.7 9.58507 42.77 8.3184 42.77Z" fill="black"/>
<path d="M15.8222 45.36C16.2956 45.44 16.6789 45.6067 16.9722 45.86C17.2656 46.1133 17.4122 46.5067 17.4122 47.04C17.4122 48.3467 16.5022 49 14.6822 49H12.7822V42.11H14.4122C15.2856 42.11 15.9522 42.2533 16.4122 42.54C16.8789 42.8267 17.1122 43.2633 17.1122 43.85C17.1122 44.25 16.9856 44.5833 16.7322 44.85C16.4856 45.1167 16.1822 45.2867 15.8222 45.36ZM13.7322 42.86V45.03H14.7722C15.1722 45.03 15.4989 44.9333 15.7522 44.74C16.0122 44.5467 16.1422 44.2733 16.1422 43.92C16.1422 43.52 16.0056 43.2433 15.7322 43.09C15.4656 42.9367 15.0589 42.86 14.5122 42.86H13.7322ZM14.6822 48.24C15.2422 48.24 15.6689 48.1567 15.9622 47.99C16.2622 47.8233 16.4122 47.5067 16.4122 47.04C16.4122 46.5867 16.2689 46.26 15.9822 46.06C15.6956 45.86 15.3222 45.76 14.8622 45.76H13.7322V48.24H14.6822Z" fill="black"/>
<path d="M26.2627 42.11V49H25.3127V42.92H22.4627V49H21.5127V42.11H26.2627Z" fill="black"/>
<path d="M30.1207 44.7C30.9474 44.7 31.5907 44.8767 32.0507 45.23C32.5174 45.5833 32.7507 46.1067 32.7507 46.8C32.7507 47.56 32.5107 48.1167 32.0307 48.47C31.5574 48.8233 30.9074 49 30.0807 49H28.2607V42.11H32.0107L31.8907 42.89H29.2107V44.7H30.1207ZM30.1607 48.24C30.6674 48.24 31.0574 48.1367 31.3307 47.93C31.6041 47.7233 31.7407 47.3533 31.7407 46.82C31.7407 46.3267 31.6041 45.9733 31.3307 45.76C31.0574 45.5467 30.6574 45.44 30.1307 45.44H29.2107V48.24H30.1607Z" fill="black"/>
<path d="M36.5118 41.99C37.0918 41.99 37.5984 42.13 38.0318 42.41C38.4718 42.6833 38.8118 43.0867 39.0518 43.62C39.2984 44.1533 39.4218 44.8 39.4218 45.56C39.4218 46.3067 39.2984 46.9467 39.0518 47.48C38.8118 48.0133 38.4718 48.42 38.0318 48.7C37.5984 48.98 37.0918 49.12 36.5118 49.12C35.9318 49.12 35.4218 48.9833 34.9818 48.71C34.5484 48.4367 34.2084 48.0333 33.9618 47.5C33.7218 46.9667 33.6018 46.3233 33.6018 45.57C33.6018 44.83 33.7218 44.19 33.9618 43.65C34.2084 43.11 34.5518 42.7 34.9918 42.42C35.4318 42.1333 35.9384 41.99 36.5118 41.99ZM36.5118 42.77C35.9118 42.77 35.4451 42.9967 35.1118 43.45C34.7784 43.9033 34.6118 44.61 34.6118 45.57C34.6118 46.5233 34.7784 47.2233 35.1118 47.67C35.4518 48.1167 35.9184 48.34 36.5118 48.34C37.7784 48.34 38.4118 47.4133 38.4118 45.56C38.4118 43.7 37.7784 42.77 36.5118 42.77Z" fill="black"/>
<path d="M46.0721 47.14C45.8921 47.5933 45.7021 47.95 45.5021 48.21C45.3021 48.47 45.0621 48.67 44.7821 48.81C44.5021 48.95 44.1487 49.0533 43.7221 49.12L43.5821 48.43C44.0487 48.3367 44.3954 48.2 44.6221 48.02C44.8487 47.8333 45.0354 47.53 45.1821 47.11H44.8321L42.6221 42.11H43.6121L45.4621 46.53L47.1121 42.11H48.0721L46.0721 47.14Z" fill="black"/>
<path d="M53.6225 42.11L51.7125 45.34L53.8125 49H52.7125L50.9125 45.77H49.9725V49H49.0225V42.11H49.9725V44.99H50.9225L52.6225 42.11H53.6225Z" fill="black"/>
<path d="M56.7211 42.11C57.5745 42.11 58.2345 42.29 58.7011 42.65C59.1678 43.0033 59.4011 43.5333 59.4011 44.24C59.4011 44.9933 59.1578 45.5533 58.6711 45.92C58.1845 46.2867 57.5378 46.47 56.7311 46.47H55.8611V49H54.9111V42.11H56.7211ZM56.6911 45.72C57.2445 45.72 57.6645 45.6133 57.9511 45.4C58.2445 45.1867 58.3911 44.8033 58.3911 44.25C58.3911 43.7567 58.2445 43.4 57.9511 43.18C57.6645 42.96 57.2511 42.85 56.7111 42.85H55.8611V45.72H56.6911Z" fill="black"/>
<path d="M63.1317 41.99C63.545 41.99 63.8917 42.0433 64.1717 42.15C64.4583 42.2567 64.7483 42.43 65.0417 42.67L64.5217 43.28C64.1017 42.94 63.6583 42.77 63.1917 42.77C62.6183 42.77 62.155 42.99 61.8017 43.43C61.455 43.87 61.2817 44.5767 61.2817 45.55C61.2817 46.4967 61.455 47.1967 61.8017 47.65C62.1483 48.0967 62.6083 48.32 63.1817 48.32C63.475 48.32 63.7317 48.27 63.9517 48.17C64.1717 48.07 64.405 47.93 64.6517 47.75L65.1217 48.35C64.9083 48.57 64.635 48.7533 64.3017 48.9C63.9683 49.0467 63.585 49.12 63.1517 49.12C62.5917 49.12 62.0917 48.9833 61.6517 48.71C61.2183 48.43 60.8783 48.0233 60.6317 47.49C60.3917 46.95 60.2717 46.3033 60.2717 45.55C60.2717 44.7967 60.3983 44.1533 60.6517 43.62C60.905 43.08 61.2483 42.6733 61.6817 42.4C62.115 42.1267 62.5983 41.99 63.1317 41.99Z" fill="black"/>
<path d="M71.0674 42.11V49H70.1174V42.92H67.2674V49H66.3174V42.11H71.0674Z" fill="black"/>
<path d="M76.7954 42.11L76.6854 42.87H74.0154V45.12H76.3354V45.88H74.0154V48.24H76.8754V49H73.0654V42.11H76.7954Z" fill="black"/>
<path d="M83.067 48.22H83.867V50.5H83.117L82.967 49H78.417V42.11H79.367V48.22H82.117V42.11H83.067V48.22Z" fill="black"/>
<path d="M89.8174 42.11V49H88.8674V42.92H86.0174V49H85.0674V42.11H89.8174Z" fill="black"/>
<path d="M93.6254 42.11C94.4788 42.11 95.1388 42.29 95.6054 42.65C96.0721 43.0033 96.3054 43.5333 96.3054 44.24C96.3054 44.9933 96.0621 45.5533 95.5754 45.92C95.0888 46.2867 94.4421 46.47 93.6354 46.47H92.7654V49H91.8154V42.11H93.6254ZM93.5954 45.72C94.1488 45.72 94.5688 45.6133 94.8554 45.4C95.1488 45.1867 95.2954 44.8033 95.2954 44.25C95.2954 43.7567 95.1488 43.4 94.8554 43.18C94.5688 42.96 94.1554 42.85 93.6154 42.85H92.7654V45.72H93.5954Z" fill="black"/>
<path d="M100.086 41.99C100.666 41.99 101.173 42.13 101.606 42.41C102.046 42.6833 102.386 43.0867 102.626 43.62C102.873 44.1533 102.996 44.8 102.996 45.56C102.996 46.3067 102.873 46.9467 102.626 47.48C102.386 48.0133 102.046 48.42 101.606 48.7C101.173 48.98 100.666 49.12 100.086 49.12C99.506 49.12 98.996 48.9833 98.556 48.71C98.1226 48.4367 97.7826 48.0333 97.536 47.5C97.296 46.9667 97.176 46.3233 97.176 45.57C97.176 44.83 97.296 44.19 97.536 43.65C97.7826 43.11 98.126 42.7 98.566 42.42C99.006 42.1333 99.5126 41.99 100.086 41.99ZM100.086 42.77C99.486 42.77 99.0193 42.9967 98.686 43.45C98.3526 43.9033 98.186 44.61 98.186 45.57C98.186 46.5233 98.3526 47.2233 98.686 47.67C99.026 48.1167 99.4926 48.34 100.086 48.34C101.353 48.34 101.986 47.4133 101.986 45.56C101.986 43.7 101.353 42.77 100.086 42.77Z" fill="black"/>
<path d="M108.28 42.11L108.17 42.87H105.5V45.12H107.82V45.88H105.5V48.24H108.36V49H104.55V42.11H108.28Z" fill="black"/>
<path d="M114.501 42.11L112.591 45.34L114.691 49H113.591L111.791 45.77H110.851V49H109.901V42.11H110.851V44.99H111.801L113.501 42.11H114.501Z" fill="black"/>
<path d="M119.86 42.11L119.76 42.92H117.85V49H116.9V42.92H114.94V42.11H119.86Z" fill="black"/>
</svg>
