<svg aria-hidden="true" style="position: absolute; width: 0; height: 0; overflow: hidden;" version="1.1" xmlns="http://www.w3.org/2000/svg" xmlns:xlink="http://www.w3.org/1999/xlink">
<defs>
<symbol id="icon-google_icon" viewBox="0 0 32 32">
<path d="M15.944 3.231c0.225 0.475 0.475 0.9 0.644 1.35 0.706 1.938 0.844 3.9 0.113 5.863-0.438 1.169-1.175 2.137-2.081 2.994-0.375 0.356-0.725 0.75-1.012 1.175-0.269 0.406-0.25 0.863 0.025 1.294 0.537 0.856 1.269 1.531 2.025 2.187 1.631 1.419 2.494 3.219 2.587 5.381 0.050 1.063 0.031 2.125-0.319 3.15-0.669 1.931-1.931 3.356-3.756 4.262-2.287 1.144-4.688 1.169-7.131 0.65-1.463-0.313-2.813-0.887-3.956-1.875-1.819-1.575-2.331-3.738-1.581-5.919 1.1-3.194 3.487-4.875 6.731-5.456 0.45-0.081 0.906-0.094 1.406-0.137-0.4-0.894-0.488-1.825-0.313-2.756-0.563-0.113-1.106-0.181-1.631-0.338-1.513-0.444-2.669-1.375-3.519-2.688-0.987-1.512-1.4-3.206-1.269-4.994 0.138-1.875 0.919-3.481 2.237-4.819 1.044-1.063 2.288-1.794 3.744-2.125 0.494-0.112 1.006-0.169 1.512-0.175 2.563-0.019 5.125-0.006 7.688-0.006 0.456 0 0.637 0.119 0.769 0.488 0.113 0.312 0.006 0.644-0.281 0.888-0.494 0.419-0.994 0.819-1.462 1.262-0.269 0.25-0.544 0.362-0.9 0.325-0.075-0.006-0.156 0.006-0.269 0.019zM10.363 28.9c0.313-0.038 0.756-0.075 1.2-0.15 0.919-0.15 1.762-0.475 2.438-1.156 0.744-0.744 0.963-1.681 0.994-2.681 0.031-0.837-0.144-1.637-0.775-2.231-0.675-0.644-1.406-1.231-2.119-1.831-0.106-0.087-0.262-0.125-0.406-0.156-1.694-0.4-3.269-0.119-4.694 0.887-2.056 1.444-2.319 4.069-0.6 5.887 1.044 1.087 2.362 1.469 3.963 1.431zM13.15 9c0-0.981-0.194-1.925-0.537-2.838-0.369-0.975-0.887-1.862-1.725-2.519-0.613-0.481-1.3-0.763-2.094-0.531-0.844 0.244-1.275 0.906-1.544 1.675-0.5 1.425-0.419 2.869-0.013 4.3 0.362 1.262 0.95 2.394 1.994 3.244 1.063 0.863 2.4 0.813 3.175-0.406 0.575-0.894 0.744-1.887 0.744-2.925z"></path>
<path d="M23.325 10.287c0-0.794 0-1.581 0-2.375 0-0.631 0.238-0.862 0.875-0.862 0.313 0 0.625-0.006 0.938 0 0.406 0.006 0.637 0.213 0.694 0.612 0.019 0.125 0.019 0.25 0.019 0.375 0 1.563 0.006 3.125-0.006 4.688 0 0.281 0.069 0.375 0.363 0.369 1.313-0.012 2.625-0.006 3.938-0.006 0.569 0 0.813 0.244 0.825 0.813 0.006 0.438 0.006 0.875 0 1.313-0.006 0.6-0.244 0.838-0.837 0.838-1.313 0-2.625 0.006-3.938-0.006-0.275 0-0.35 0.081-0.35 0.356 0.012 1.581 0.006 3.169 0.006 4.75 0 0.731-0.219 0.95-0.944 0.95-0.25 0-0.5 0-0.75 0-0.556 0-0.825-0.262-0.825-0.819-0.006-1.3 0-2.606 0-3.906 0-0.313-0.019-0.625 0.006-0.938 0.019-0.294-0.069-0.394-0.381-0.394-1.281 0.019-2.563 0.006-3.844 0.006-0.681 0-0.894-0.213-0.894-0.9 0-0.406-0.006-0.813 0-1.219 0.006-0.631 0.225-0.85 0.844-0.85 1.3 0 2.606-0.006 3.906 0.006 0.288 0 0.375-0.081 0.369-0.369-0.025-0.806-0.012-1.619-0.012-2.431z"></path>
</symbol>
<symbol id="icon-fb_icon" viewBox="0 0 32 32">
<path d="M19.269 31.781c-0.156 0.006-0.256 0.019-0.356 0.019-2.137 0-4.269-0.006-6.406 0.006-0.3 0-0.381-0.081-0.381-0.381 0.006-4.975 0.006-9.956 0.006-14.931 0-0.131 0-0.262 0-0.431-1.162 0-2.294 0-3.444 0 0-1.775 0-3.519 0-5.313 0.119 0 0.231 0 0.338 0 0.938 0 1.875-0.006 2.813 0.006 0.238 0 0.3-0.069 0.3-0.3-0.012-1.394-0.012-2.794 0-4.188 0.006-0.975 0.162-1.925 0.613-2.806 0.644-1.244 1.662-2.050 2.95-2.55 1.050-0.412 2.156-0.563 3.269-0.581 1.813-0.025 3.625-0.013 5.438-0.019 0.169 0 0.306-0.006 0.306 0.231-0.006 1.719-0.006 3.438-0.006 5.156 0 0.019-0.006 0.037-0.031 0.119-0.106 0-0.225 0-0.344 0-1.125 0-2.25-0.006-3.375 0-0.65 0-1.175 0.263-1.506 0.831-0.1 0.169-0.163 0.388-0.163 0.588-0.019 1.063 0 2.125-0.012 3.188 0 0.25 0.075 0.319 0.319 0.319 1.563-0.012 3.125-0.006 4.688-0.006 0.125 0 0.244 0 0.456 0-0.219 1.787-0.431 3.537-0.65 5.306-1.625 0-3.206 0-4.819 0 0 5.256 0 10.481 0 15.738z"></path>
</symbol>
<symbol id="icon-instagram" viewBox="0 0 32 32">
<path d="M16 2.347c-3.708 0-4.173 0.016-5.629 0.082-1.453 0.066-2.446 0.297-3.314 0.635-0.898 0.349-1.659 0.816-2.418 1.575s-1.226 1.52-1.575 2.418c-0.338 0.868-0.568 1.861-0.635 3.314-0.066 1.456-0.082 1.921-0.082 5.629s0.016 4.173 0.082 5.629c0.066 1.453 0.297 2.446 0.635 3.314 0.349 0.898 0.816 1.659 1.575 2.418s1.52 1.226 2.418 1.575c0.869 0.337 1.861 0.568 3.314 0.635 1.456 0.066 1.921 0.082 5.629 0.082s4.173-0.016 5.629-0.082c1.453-0.066 2.446-0.297 3.314-0.635 0.898-0.349 1.659-0.816 2.418-1.575s1.226-1.52 1.575-2.418c0.337-0.868 0.568-1.861 0.635-3.314 0.066-1.456 0.082-1.921 0.082-5.629s-0.016-4.173-0.082-5.629c-0.066-1.453-0.297-2.446-0.635-3.314-0.349-0.898-0.816-1.659-1.575-2.418s-1.52-1.226-2.418-1.575c-0.868-0.338-1.861-0.568-3.314-0.635-1.456-0.066-1.921-0.082-5.629-0.082zM16 4.807c3.646 0 4.077 0.014 5.517 0.080 1.331 0.061 2.054 0.283 2.535 0.47 0.637 0.248 1.092 0.544 1.57 1.021s0.774 0.933 1.021 1.57c0.187 0.481 0.409 1.204 0.47 2.535 0.066 1.44 0.080 1.872 0.080 5.517s-0.014 4.077-0.080 5.517c-0.061 1.331-0.283 2.054-0.47 2.535-0.248 0.637-0.544 1.092-1.021 1.57s-0.933 0.774-1.57 1.021c-0.481 0.187-1.204 0.409-2.535 0.47-1.439 0.066-1.871 0.080-5.517 0.080s-4.078-0.014-5.517-0.080c-1.331-0.061-2.054-0.283-2.535-0.47-0.637-0.248-1.092-0.544-1.57-1.021s-0.774-0.933-1.021-1.57c-0.187-0.481-0.409-1.204-0.47-2.535-0.066-1.44-0.080-1.872-0.080-5.517s0.014-4.077 0.080-5.517c0.061-1.331 0.283-2.054 0.47-2.535 0.248-0.637 0.544-1.092 1.021-1.57s0.933-0.774 1.57-1.021c0.481-0.187 1.204-0.409 2.535-0.47 1.44-0.066 1.872-0.080 5.517-0.080z"></path>
<path d="M16 20.551c-2.514 0-4.551-2.038-4.551-4.551s2.038-4.551 4.551-4.551c2.514 0 4.551 2.038 4.551 4.551s-2.038 4.551-4.551 4.551zM16 8.989c-3.872 0-7.011 3.139-7.011 7.011s3.139 7.011 7.011 7.011c3.872 0 7.011-3.139 7.011-7.011s-3.139-7.011-7.011-7.011z"></path>
<path d="M24.927 8.712c0 0.905-0.734 1.638-1.638 1.638s-1.638-0.733-1.638-1.638 0.734-1.638 1.638-1.638c0.905 0 1.638 0.734 1.638 1.638z"></path>
</symbol>

</defs>
</svg>
