<svg aria-hidden="true" style="position:absolute;width:0;height:0;overflow:hidden" xmlns="http://www.w3.org/2000/svg"><defs><symbol id="icon-arrowdown" viewBox="0 0 32 32"><path stroke-linejoin="round" stroke-linecap="round" stroke-miterlimit="10" stroke-width="2" d="m26.56 11.934-8.693 8.693a2.647 2.647 0 0 1-3.733 0l-8.693-8.693"/></symbol>

<symbol id="icon-f-icon" viewBox="0 0 32 32"><path d="M16 28.036c6.647 0 12.036-5.389 12.036-12.036S22.647 3.964 16 3.964C9.353 3.964 3.964 9.353 3.964 16S9.353 28.036 16 28.036z"/><path stroke-miterlimit="10" stroke-width=".64" d="M16 31.36c8.483 0 15.36-6.877 15.36-15.36S24.483.64 16 .64.64 7.517.64 16 7.517 31.36 16 31.36z"/><path d="M29.526 16.743a.743.743 0 1 0 0-1.487.743.743 0 0 0 0 1.487zM2.474 16.743a.743.743 0 1 0 0-1.487.743.743 0 0 0 0 1.487zM17 13.313V12.24c0-.523.348-.646.591-.646H19.1V9.292l-2.077-.009c-2.302 0-2.829 1.715-2.829 2.815v1.215h-1.33V16h1.343v6.717h2.687V16h1.994l.243-2.687h-2.132z"/></symbol>

<symbol id="icon-google-icon" viewBox="0 0 32 32"><path d="M16 28.353c6.822 0 12.353-5.531 12.353-12.353S22.822 3.647 16 3.647 3.647 9.178 3.647 16 9.178 28.353 16 28.353z"/><path stroke-miterlimit="10" stroke-width=".667" d="M16 31.765c8.707 0 15.765-7.058 15.765-15.765S24.707.235 16 .235.235 7.293.235 16 7.293 31.765 16 31.765z"/><path d="M29.882 16.762a.762.762 0 1 0 0-1.524.762.762 0 0 0 0 1.524zM2.118 16.762a.762.762 0 1 0 0-1.524.762.762 0 0 0 0 1.524zM13.849 16.951h2.254a2.866 2.866 0 0 1-2.72 1.911 2.871 2.871 0 0 1-2.838-2.748 2.865 2.865 0 0 1 2.861-2.974c.739 0 1.412.282 1.92.743a.318.318 0 0 0 .424 0l.828-.776a.312.312 0 0 0 0-.452 4.597 4.597 0 0 0-3.078-1.261c-2.541-.052-4.687 2.033-4.706 4.579a4.612 4.612 0 0 0 9.214.292c.005-.028.005-1.059.005-1.059h-4.165a.31.31 0 0 0-.311.311v1.134c0 .165.141.301.311.301zM21.831 15.304v-1.106a.273.273 0 0 0-.273-.273h-.932a.273.273 0 0 0-.273.273v1.106h-1.106a.273.273 0 0 0-.273.273v.932c0 .151.122.273.273.273h1.106v1.101c0 .151.122.273.273.273h.932a.273.273 0 0 0 .273-.273v-1.106h1.106a.273.273 0 0 0 .273-.273v-.927a.273.273 0 0 0-.273-.273h-1.106z"/></symbol>

<symbol id="icon-insta-icon" viewBox="0 0 32 32"><path d="M16 28.036c6.647 0 12.036-5.389 12.036-12.036S22.647 3.964 16 3.964C9.353 3.964 3.964 9.353 3.964 16S9.353 28.036 16 28.036z"/><path stroke-miterlimit="10" stroke-width=".64" d="M16 31.36c8.483 0 15.36-6.877 15.36-15.36S24.483.64 16 .64.64 7.517.64 16 7.517 31.36 16 31.36z"/><path d="M29.526 16.743a.743.743 0 1 0 0-1.487.743.743 0 0 0 0 1.487zM2.474 16.743a.743.743 0 1 0 0-1.487.743.743 0 0 0 0 1.487zM16 19.636c2.004 0 3.636-1.632 3.636-3.636S18.004 12.364 16 12.364c-2.004 0-3.636 1.632-3.636 3.636s1.632 3.636 3.636 3.636zM13.244 16c0-1.522 1.238-2.756 2.756-2.756s2.756 1.238 2.756 2.756c0 1.518-1.238 2.756-2.756 2.756S13.244 17.523 13.244 16z"/><path d="M19.627 22.043h-7.254a2.475 2.475 0 0 1-2.471-2.471v-7.144a2.475 2.475 0 0 1 2.471-2.471h7.254a2.475 2.475 0 0 1 2.471 2.471v7.144a2.475 2.475 0 0 1-2.471 2.471zM12.373 10.86c-.867 0-1.568.702-1.568 1.568v7.144c0 .867.701 1.568 1.568 1.568h7.254c.867 0 1.568-.701 1.568-1.568v-7.144c0-.867-.701-1.568-1.568-1.568h-7.254z"/></symbol>

<symbol id="icon-left-arrow" viewBox="0 0 32 32"><path stroke-linejoin="round" stroke-linecap="round" stroke-miterlimit="10" stroke-width="1.454" d="M27.151 31.03 6.663 18.657c-2.42-1.461-2.42-3.852 0-5.314L27.151.97"/></symbol><symbol id="icon-right-arrow" viewBox="0 0 32 32"><path stroke-linejoin="round" stroke-linecap="round" stroke-miterlimit="10" stroke-width="1.454" d="m4.848 31.03 20.488-12.373c2.42-1.461 2.42-3.852 0-5.314L4.848.97"/></symbol>

<symbol id="icon-left" viewBox="0 0 24 32"><path d="M23.111 0.255c-0.131 0.048-20.566 12.373-20.97 12.646-1.469 0.999-2.141 2.442-1.79 3.847 0.218 0.873 0.866 1.723 1.79 2.351 0.461 0.313 20.847 12.6 20.984 12.648 0.303 0.106 0.573-0.026 0.783-0.383 0.068-0.106 0.108-0.235 0.108-0.373 0-0.001 0-0.002 0-0.003v0c0-0.215-0.072-0.349-0.268-0.495-0.073-0.055-4.687-2.85-10.253-6.21s-10.268-6.206-10.447-6.321c-1.255-0.814-1.659-1.859-1.1-2.844 0.159-0.281 0.547-0.693 0.865-0.92 0.138-0.099 4.884-2.977 10.547-6.397s10.363-6.274 10.446-6.343c0.132-0.105 0.217-0.266 0.217-0.446 0-0.055-0.008-0.109-0.023-0.16l0.001 0.004c-0.049-0.179-0.241-0.461-0.375-0.547-0.091-0.053-0.2-0.085-0.316-0.085-0.071 0-0.14 0.012-0.204 0.033l0.004-0.001z"></path></symbol>

<symbol id="icon-right" viewBox="0 0 24 32"><path d="M0.752 0.243c-0.263 0.079-0.526 0.464-0.526 0.769 0 0.215 0.072 0.349 0.268 0.496 0.073 0.055 4.687 2.85 10.253 6.21s10.268 6.206 10.447 6.321c1.792 1.162 1.792 2.76 0 3.921-0.178 0.115-4.88 2.96-10.447 6.32s-10.18 6.156-10.253 6.211c-0.196 0.146-0.268 0.28-0.268 0.495 0 0.134 0.032 0.246 0.108 0.375 0.209 0.357 0.479 0.489 0.783 0.383 0.137-0.047 20.517-12.331 20.984-12.647 0.943-0.638 1.595-1.519 1.82-2.452 0.029-0.122 0.053-0.413 0.053-0.647s-0.024-0.525-0.053-0.647c-0.225-0.934-0.878-1.814-1.82-2.452-0.42-0.284-20.841-12.597-20.97-12.644-0.164-0.059-0.219-0.061-0.379-0.014z"></path></symbol>

<symbol id="icon-skrepka-icon" viewBox="0 0 32 32"><path d="M14.693 0.591c-3.028 0.286-5.724 1.34-8.16 3.188-0.672 0.51-2.18 2.007-2.693 2.674-0.929 1.206-1.837 2.821-2.318 4.124-0.676 1.831-0.956 3.421-0.956 5.423 0 2.551 0.465 4.554 1.594 6.853 0.781 1.589 1.611 2.739 2.929 4.058s2.468 2.148 4.058 2.929c2.3 1.129 4.302 1.594 6.853 1.594s4.554-0.465 6.853-1.594c1.591-0.782 2.745-1.614 4.057-2.928 1.325-1.328 2.15-2.47 2.93-4.059 1.129-2.3 1.594-4.302 1.594-6.853s-0.465-4.554-1.594-6.853c-0.781-1.589-1.611-2.739-2.929-4.058s-2.468-2.148-4.058-2.929c-1.664-0.816-3.097-1.252-4.907-1.494-0.775-0.103-2.523-0.144-3.253-0.075zM17.333 1.658c7.396 0.686 13.067 6.91 13.067 14.342 0 7.953-6.447 14.4-14.4 14.4s-14.4-6.447-14.4-14.4c0.002-6.054 3.734-11.235 9.023-13.37l0.097-0.035c1.127-0.449 2.435-0.778 3.798-0.929l0.069-0.006c0.415-0.032 0.9-0.050 1.388-0.050 0.478 0 0.952 0.017 1.421 0.052l-0.063-0.004zM14.667 4.379c-1.984 0.224-4.079 1.058-5.676 2.26-2.582 1.943-4.176 4.706-4.618 8.001-0.031 0.235-0.057 0.847-0.057 1.36 0 1.383 0.158 2.371 0.588 3.681 0.595 1.801 1.567 3.339 2.829 4.583l0.001 0.001c1.871 1.871 4.183 2.996 6.906 3.361 0.55 0.074 2.17 0.074 2.72 0 1.873-0.251 3.597-0.882 5.070-1.857 2.883-1.909 4.725-4.892 5.197-8.41 0.074-0.55 0.074-2.17 0-2.72-0.234-1.744-0.831-3.452-1.679-4.8-1.933-3.073-5.113-5.075-8.679-5.463-0.596-0.065-2.016-0.064-2.602 0.002zM19.707 9.68c1.486 0.319 2.586 1.616 2.598 3.172v0.001c0.004 0.597-0.097 1.026-0.368 1.569-0.165 0.331-0.361 0.55-1.555 1.751l-1.365 1.375-0.533-0.533 1.283-1.295c0.868-0.876 1.337-1.39 1.45-1.59 0.656-1.167 0.287-2.618-0.854-3.359-0.436-0.284-0.875-0.389-1.498-0.363-0.455 0.020-0.546 0.043-0.925 0.228-0.383 0.189-0.531 0.317-1.728 1.504l-1.31 1.298-0.526-0.534 1.279-1.281c0.704-0.705 1.402-1.363 1.551-1.463 0.516-0.343 1.15-0.548 1.831-0.548 0.237 0 0.469 0.025 0.692 0.072l-0.022-0.004zM16.693 15.76l-2.746 2.747-0.533-0.533 5.491-5.493 0.533 0.533-2.746 2.747zM13.191 15.159c-0.65 0.653-1.257 1.308-1.348 1.454-0.281 0.446-0.395 0.915-0.365 1.495 0.022 0.431 0.052 0.551 0.22 0.905 0.613 1.293 2.085 1.81 3.39 1.19 0.304-0.144 0.525-0.338 1.607-1.411l1.257-1.245 0.528 0.537-1.307 1.295c-1.109 1.099-1.363 1.324-1.68 1.486-1.098 0.565-2.346 0.5-3.357-0.176-0.675-0.449-1.165-1.129-1.36-1.926l-0.005-0.022c-0.193-0.753-0.108-1.522 0.25-2.255 0.18-0.369 0.32-0.529 1.506-1.728l1.308-1.321 0.268 0.267 0.268 0.268-1.18 1.187zM2.448 15.428c-0.119 0.085-0.21 0.203-0.258 0.342l-0.001 0.005c-0.069 0.198-0.069 0.252 0 0.45 0.1 0.288 0.355 0.468 0.665 0.468s0.564-0.18 0.665-0.468c0.069-0.198 0.069-0.252 0-0.45-0.094-0.275-0.349-0.468-0.65-0.468-0.005 0-0.010 0-0.015 0h0.001c-0.145 0-0.288 0.043-0.405 0.122zM28.741 15.428c-0.119 0.085-0.21 0.203-0.258 0.342l-0.001 0.005c-0.069 0.198-0.069 0.252 0 0.45 0.218 0.625 1.111 0.625 1.329 0 0.069-0.198 0.069-0.252 0-0.45-0.094-0.275-0.349-0.468-0.65-0.468-0.005 0-0.010 0-0.015 0h0.001c-0.145 0-0.288 0.043-0.405 0.122z"></path></symbol>

<symbol id="icon-x-icon" viewBox="0 0 32 32"><path d="M32 2.113 29.887 0 16 13.887 2.113 0 0 2.113 13.887 16 0 29.887 2.113 32 16 18.113 29.887 32 32 29.887 18.113 16 32 2.113z"/></symbol></defs></svg>