<svg aria-hidden="true" style="position:absolute;width:0;height:0;overflow:hidden" xmlns="http://www.w3.org/2000/svg"><defs><symbol id="icon-arrowdown" viewBox="0 0 32 32"><path stroke-linejoin="round" stroke-linecap="round" stroke-miterlimit="10" stroke-width="2" d="m26.56 11.934-8.693 8.693a2.647 2.647 0 0 1-3.733 0l-8.693-8.693"/></symbol>

<symbol id="icon-f-icon" viewBox="0 0 32 32"><path d="M16 28.036c6.647 0 12.036-5.389 12.036-12.036S22.647 3.964 16 3.964C9.353 3.964 3.964 9.353 3.964 16S9.353 28.036 16 28.036z"/><path stroke-miterlimit="10" stroke-width=".64" d="M16 31.36c8.483 0 15.36-6.877 15.36-15.36S24.483.64 16 .64.64 7.517.64 16 7.517 31.36 16 31.36z"/><path d="M29.526 16.743a.743.743 0 1 0 0-1.487.743.743 0 0 0 0 1.487zM2.474 16.743a.743.743 0 1 0 0-1.487.743.743 0 0 0 0 1.487zM17 13.313V12.24c0-.523.348-.646.591-.646H19.1V9.292l-2.077-.009c-2.302 0-2.829 1.715-2.829 2.815v1.215h-1.33V16h1.343v6.717h2.687V16h1.994l.243-2.687h-2.132z"/></symbol>

<symbol id="icon-google-icon" viewBox="0 0 32 32"><path d="M16 28.353c6.822 0 12.353-5.531 12.353-12.353S22.822 3.647 16 3.647 3.647 9.178 3.647 16 9.178 28.353 16 28.353z"/><path stroke-miterlimit="10" stroke-width=".667" d="M16 31.765c8.707 0 15.765-7.058 15.765-15.765S24.707.235 16 .235.235 7.293.235 16 7.293 31.765 16 31.765z"/><path d="M29.882 16.762a.762.762 0 1 0 0-1.524.762.762 0 0 0 0 1.524zM2.118 16.762a.762.762 0 1 0 0-1.524.762.762 0 0 0 0 1.524zM13.849 16.951h2.254a2.866 2.866 0 0 1-2.72 1.911 2.871 2.871 0 0 1-2.838-2.748 2.865 2.865 0 0 1 2.861-2.974c.739 0 1.412.282 1.92.743a.318.318 0 0 0 .424 0l.828-.776a.312.312 0 0 0 0-.452 4.597 4.597 0 0 0-3.078-1.261c-2.541-.052-4.687 2.033-4.706 4.579a4.612 4.612 0 0 0 9.214.292c.005-.028.005-1.059.005-1.059h-4.165a.31.31 0 0 0-.311.311v1.134c0 .165.141.301.311.301zM21.831 15.304v-1.106a.273.273 0 0 0-.273-.273h-.932a.273.273 0 0 0-.273.273v1.106h-1.106a.273.273 0 0 0-.273.273v.932c0 .151.122.273.273.273h1.106v1.101c0 .151.122.273.273.273h.932a.273.273 0 0 0 .273-.273v-1.106h1.106a.273.273 0 0 0 .273-.273v-.927a.273.273 0 0 0-.273-.273h-1.106z"/></symbol>

<symbol id="icon-insta-icon" viewBox="0 0 32 32"><path d="M16 28.036c6.647 0 12.036-5.389 12.036-12.036S22.647 3.964 16 3.964C9.353 3.964 3.964 9.353 3.964 16S9.353 28.036 16 28.036z"/><path stroke-miterlimit="10" stroke-width=".64" d="M16 31.36c8.483 0 15.36-6.877 15.36-15.36S24.483.64 16 .64.64 7.517.64 16 7.517 31.36 16 31.36z"/><path d="M29.526 16.743a.743.743 0 1 0 0-1.487.743.743 0 0 0 0 1.487zM2.474 16.743a.743.743 0 1 0 0-1.487.743.743 0 0 0 0 1.487zM16 19.636c2.004 0 3.636-1.632 3.636-3.636S18.004 12.364 16 12.364c-2.004 0-3.636 1.632-3.636 3.636s1.632 3.636 3.636 3.636zM13.244 16c0-1.522 1.238-2.756 2.756-2.756s2.756 1.238 2.756 2.756c0 1.518-1.238 2.756-2.756 2.756S13.244 17.523 13.244 16z"/><path d="M19.627 22.043h-7.254a2.475 2.475 0 0 1-2.471-2.471v-7.144a2.475 2.475 0 0 1 2.471-2.471h7.254a2.475 2.475 0 0 1 2.471 2.471v7.144a2.475 2.475 0 0 1-2.471 2.471zM12.373 10.86c-.867 0-1.568.702-1.568 1.568v7.144c0 .867.701 1.568 1.568 1.568h7.254c.867 0 1.568-.701 1.568-1.568v-7.144c0-.867-.701-1.568-1.568-1.568h-7.254z"/></symbol>

<symbol id="icon-left-arrow" viewBox="0 0 32 32"><path stroke-linejoin="round" stroke-linecap="round" stroke-miterlimit="10" stroke-width="1.454" d="M27.151 31.03 6.663 18.657c-2.42-1.461-2.42-3.852 0-5.314L27.151.97"/></symbol><symbol id="icon-right-arrow" viewBox="0 0 32 32"><path stroke-linejoin="round" stroke-linecap="round" stroke-miterlimit="10" stroke-width="1.454" d="m4.848 31.03 20.488-12.373c2.42-1.461 2.42-3.852 0-5.314L4.848.97"/></symbol>

<symbol id="icon-skrepka-icon" viewBox="0 0 32 32"><path d="M16 27.954c6.602 0 11.954-5.352 11.954-11.954S22.602 4.046 16 4.046 4.046 9.398 4.046 16 9.398 27.954 16 27.954z"/><path stroke-miterlimit="10" stroke-width=".744" d="M16 31.256c8.426 0 15.256-6.83 15.256-15.256S24.426.744 16 .744.744 7.574.744 16 7.574 31.256 16 31.256z"/><path d="M29.434 16.738a.738.738 0 1 0 0-1.476.738.738 0 0 0 0 1.476zM2.566 16.738a.738.738 0 1 0 0-1.476.738.738 0 0 0 0 1.476zM20.864 10.682a3.45 3.45 0 0 0-4.872 0l-2.436 2.436.573.573 2.436-2.436a2.635 2.635 0 1 1 3.726 3.726l-2.436 2.436.573.573 2.436-2.436a3.45 3.45 0 0 0 0-4.872zM14.989 20.284a2.635 2.635 0 1 1-3.726-3.726l2.293-2.293-.573-.573-2.293 2.293a3.453 3.453 0 0 0-.754 3.759 3.44 3.44 0 0 0 1.868 1.868 3.44 3.44 0 0 0 3.759-.753l2.293-2.293-.573-.573-2.293 2.293z"/><path d="m18.285 12.688-5.732 5.732.573.573 5.732-5.732-.573-.573z"/></symbol>

<symbol id="icon-x-icon" viewBox="0 0 32 32"><path d="M32 2.113 29.887 0 16 13.887 2.113 0 0 2.113 13.887 16 0 29.887 2.113 32 16 18.113 29.887 32 32 29.887 18.113 16 32 2.113z"/></symbol></defs></svg>